<svg width="800" height="800" viewBox="0 0 36 36" xmlns="http://www.w3.org/2000/svg" aria-hidden="true" class="iconify iconify--twemoji"><path fill="#E1E8ED" d="m32 10-9-9a2 2 0 0 0-2 2l-4 4 9 9 4-4a2 2 0 0 0 2-2z"/><path fill="#CCD6DD" d="M22 0H7a4 4 0 0 0-4 4v28a4 4 0 0 0 4 4h22a4 4 0 0 0 4-4V11h-9l-2-2V0z"/><path fill="#99AAB5" d="M22 0h-2v9a4 4 0 0 0 4 4h9v-2h-9l-2-2V0zm-5 8a1 1 0 0 1-1 1H8a1 1 0 0 1 0-2h8a1 1 0 0 1 1 1zm0 4a1 1 0 0 1-1 1H8a1 1 0 0 1 0-2h8a1 1 0 0 1 1 1zm12 4a1 1 0 0 1-1 1H8a1 1 0 0 1 0-2h20a1 1 0 0 1 1 1zm0 4a1 1 0 0 1-1 1H8a1 1 0 1 1 0-2h20a1 1 0 0 1 1 1zm0 4a1 1 0 0 1-1 1H8a1 1 0 1 1 0-2h20a1 1 0 0 1 1 1zm0 4a1 1 0 0 1-1 1H8a1 1 0 1 1 0-2h20a1 1 0 0 1 1 1z"/></svg>