<?xml version="1.0" encoding="iso-8859-1"?>
<!-- Uploaded to: SVG Repo, www.svgrepo.com, Generator: SVG Repo Mixer Tools -->
<svg fill="#000000" height="800px" width="800px" version="1.1" id="Layer_1" xmlns="http://www.w3.org/2000/svg" xmlns:xlink="http://www.w3.org/1999/xlink" 
	 viewBox="0 0 491.52 491.52" xml:space="preserve">
<g>
	<g>
		<polygon points="334.879,7.93 334.879,94.307 421.256,94.307 		"/>
	</g>
</g>
<g>
	<g>
		<path d="M224.046,71.948l-14.926-5.241c-1.03-0.349-2.16-0.356-3.206,0.046c-3.228,1.223-7.51,2.818-10.204,3.677
			c-2.028,0.65-4.126,0.976-6.255,0.976h-13.525c-0.73,0.177-2.049,0.623-3.369,1.668c-0.128,0.102-0.244,0.286-0.372,0.401
			c-0.528,0.468-1.061,0.965-1.534,1.662c-0.591,0.872-1.113,1.936-1.483,3.244v21.577v5.21c0,0,0.643,17.783,11.451,24.937
			c0.123,0.084,0.212,0.151,0.331,0.232c0.01,0.006,0.022,0.009,0.032,0.016c0.079,0.053,0.153,0.114,0.231,0.168
			c1.191,0.823,2.191,1.546,3.121,2.278c6.744,5.295,11.876,7.208,13.123,7.169c0.48-0.008,0.882,0.008,1.316,0.078
			c0.433,0.034,5.272,0.422,11.006-3.567c0.821-0.573,1.661-1.231,2.511-1.999c1.827-1.65,3.762-3.151,5.775-4.545
			c0.061-0.038,0.634-0.441,0.697-0.48c2.789-1.879,9.641-8.257,11.234-25.382V78.351C229.767,77.351,228.629,73.636,224.046,71.948
			z"/>
	</g>
</g>
<g>
	<g>
		<polygon points="182.486,161.503 175.707,156.974 183.725,171.556 185.343,169.342 185.374,169.303 186.283,168.068 
			188.267,165.368 		"/>
	</g>
</g>
<g>
	<g>
		<path d="M231.121,52.818c-2.315-0.558-4.266-2.129-5.295-4.274c-1.03-2.152-1.045-4.645-0.031-6.805
			c0.023-0.061,0.055-0.24,0.085-0.418c-0.17-0.015-0.488-0.116-0.983-0.24h-42.496c-11.342,0-20.593,9.143-20.764,20.446
			c0.176-0.155,0.363-0.256,0.541-0.404c0.617-0.514,1.238-0.961,1.871-1.395c0.428-0.293,0.843-0.604,1.273-0.861
			c0.686-0.414,1.359-0.751,2.04-1.08c0.376-0.182,0.749-0.393,1.118-0.55c0.753-0.32,1.468-0.561,2.181-0.786
			c0.273-0.086,0.559-0.207,0.824-0.281c0.956-0.263,1.86-0.454,2.67-0.559c0.333-0.038,0.674-0.062,1.015-0.062h14.284
			c0.488,0,0.968-0.077,1.432-0.224c2.469-0.79,6.41-2.261,9.399-3.398c1.157-0.439,2.345-0.763,3.547-0.985
			c0.304-0.056,0.613-0.051,0.918-0.093c0.907-0.126,1.814-0.24,2.726-0.244c0.035,0,0.067-0.009,0.101-0.009
			c0.643,0,1.279,0.101,1.919,0.161c0.485,0.045,0.972,0.041,1.454,0.121c1.156,0.192,2.299,0.478,3.417,0.872l15.035,5.28
			c1.571,0.577,2.982,1.273,4.289,2.034c0.488,0.285,0.896,0.612,1.349,0.915c0.762,0.515,1.519,1.026,2.187,1.587
			c0.123,0.104,0.284,0.189,0.405,0.294v-2.044C237.346,58.508,236.007,53.987,231.121,52.818z"/>
	</g>
</g>
<g>
	<g>
		<path d="M279.741,183.091c-0.658-3.948-3.398-7.247-7.169-8.609l-33.933-12.28l-15.329,27.881c-1.3,2.376-3.723,3.918-6.426,4.095
			c-0.177,0.008-0.348,0.016-0.518,0.016c-2.516,0-4.893-1.193-6.388-3.236l-10.413-14.18l-1.037,1.405
			c-0.006,0.012-0.017,0.025-0.025,0.037l0.002,0.002l-0.373,0.502l0.002,0.001l-8.973,12.233c-1.502,2.044-3.879,3.236-6.395,3.236
			c-0.17,0-0.341-0.008-0.518-0.016c-2.694-0.177-5.126-1.719-6.426-4.095l-15.335-27.881l-33.935,12.28
			c-3.762,1.362-6.51,4.661-7.169,8.609l-4.166,25.161l0.643,0.751h167.412l0.635-0.751L279.741,183.091z"/>
	</g>
</g>
<g>
	<g>
		<path d="M326.95,110.162c-4.382,0-7.928-3.546-7.928-7.927V0H62.335v491.52h366.849V110.162H326.95z M99.577,205.659l4.166-25.154
			c1.587-9.6,8.261-17.621,17.419-20.934l40.305-14.586c0,0,0.009,0,0.014-0.002c0,0,0.006-0.004,0.009-0.005l7.131-2.553v-1.603
			c-14.614-12.649-15.284-34.489-15.306-35.483v-5.013c-0.166-2.562-0.913-4.707-2.245-6.36c-3.415-4.251-5.288-9.616-5.288-15.113
			V61.837c0-20.191,16.428-36.612,36.619-36.612h43.347c0.511,0,1.014,0.047,1.509,0.147c7.758,1.502,11.288,5.574,12.891,8.718
			c1.061,2.098,1.509,4.188,1.602,6.116c7.858,4.715,11.04,12.968,11.675,17.937c0.038,0.333,0.062,0.666,0.062,0.999V82.29
			c0,3.569-1.007,7.076-2.919,10.142c-3.615,5.791-4.792,13.2-4.8,13.277c-0.02,0.134-0.099,0.239-0.126,0.369
			c-2.046,19.233-9.383,29.254-15.133,34.253v2.094l7.123,2.551l0.008,0.005c0.005,0.002,0.009,0,0.015,0.002l40.305,14.586
			c9.158,3.306,15.832,11.326,17.419,20.934l4.165,25.161c0.798,4.785-0.549,9.662-3.685,13.362
			c-3.143,3.709-7.726,5.83-12.588,5.83H115.859c-4.862,0-9.453-2.129-12.596-5.83C100.127,215.321,98.78,210.451,99.577,205.659z
			 M333.376,447.478H107.281c-4.382,0-7.928-3.546-7.928-7.928c0-4.381,3.546-7.927,7.928-7.927h226.095
			c4.382,0,7.927,3.546,7.927,7.927C341.304,443.932,337.759,447.478,333.376,447.478z M384.241,405.184h-276.96
			c-4.382,0-7.928-3.546-7.928-7.927c0-4.382,3.546-7.928,7.928-7.928h276.96c4.381,0,7.927,3.546,7.927,7.928
			C392.168,401.638,388.622,405.184,384.241,405.184z M384.241,362.882h-276.96c-4.382,0-7.928-3.546-7.928-7.928
			c0-4.381,3.546-7.927,7.928-7.927h276.96c4.381,0,7.927,3.546,7.927,7.927C392.168,359.336,388.622,362.882,384.241,362.882z
			 M384.241,320.588h-276.96c-4.382,0-7.928-3.546-7.928-7.927c0-4.382,3.546-7.928,7.928-7.928h276.96
			c4.381,0,7.927,3.546,7.927,7.928C392.168,317.042,388.622,320.588,384.241,320.588z M384.241,278.294h-276.96
			c-4.382,0-7.928-3.546-7.928-7.928s3.546-7.928,7.928-7.928h276.96c4.381,0,7.927,3.546,7.927,7.928
			S388.622,278.294,384.241,278.294z"/>
	</g>
</g>
<g>
	<g>
		<polygon points="210.861,165.37 215.405,171.564 223.418,156.978 		"/>
	</g>
</g>
</svg>