<svg fill="#2995c7" width="800" height="800" viewBox="0 0 32 32" xmlns="http://www.w3.org/2000/svg"><path d="m13.1 23.6 10.5-6-4.7-2.7-10.5 6zm11-12.2-4.8-2.8v5.5l4.8 2.7zm.5-6.3-4.8 2.7 4.8 2.8 4.7-2.8zM9.9 18.9l2.8-1.6V5.4L7.9 8.1v12zM7.4 2 2.7 4.5l4.7 2.7 4.8-2.7zM2.2 5.3V24l10.5 6v-5.5l-5.5-3v-.1H7v-.1L7 21V8L4.2 6.6zM24.1 24v-5.5l-10.5 6V30zm5.7-9.8V8.6L25 11.4v5.4zm1-6.4v6.6c0 .2-.2.4-.3.4L25 18V24c0 .2 0 .4-.2.4l-11.4 6.6h-.1a.4.4 0 0 1-.3 0L1.4 24.5a.5.5 0 0 1-.2-.4V4.3h.1v-.1L7.3.9a.5.5 0 0 1 .5 0l5.7 3.3.1.1v.1h.1V16.9l4.8-2.7V7.6l.1-.1.1-.1 5.7-3.3a.5.5 0 0 1 .5 0l5.7 3.3h.1v.1l.1.1z"/></svg>