<svg fill="#2995c7" width="800" height="800" viewBox="0 0 32 32" xmlns="http://www.w3.org/2000/svg"><path d="M30 15.1a3.8 3.8 0 0 0-1.6.3c-.1 0-.3 0-.3.2l.1.2.4.6.6.3 1 .6c.2 0 .3.2.5.4l.3.2-.1-.3-.3-.3a4 4 0 0 0-.8-.8c-.3-.2-1-.4-1-.7l.6-.2.8-.1.4-.1v-.1l-.4-.5a11 11 0 0 0-1.4-1l-.9-.5-.3-.1-.3-.6-.7-1.5-.5-1a8.5 8.5 0 0 0-3.2-3V7a4 4 0 0 0-1-.3h-.7a3 3 0 0 1-.4-.4c-.5-.3-1.7-1-2 0-.3.5.3 1 .5 1.3l.4.6c0 .2 0 .3.2.5l.4 1.1c0 .2.2.4.3.5 0 0 .2.1.2.3l-.2.6A3.6 3.6 0 0 0 21 14c0 .2.4.7.8.5.4-.1.3-.6.4-1v-.3l.4.8c.3.4.7.8 1.1 1l.6.6-.2-.2-.4-.5-1-1.5c0-.3-.2-.6-.3-.8 0-.1 0-.3-.2-.3a3 3 0 0 0-.3.5c-.2.4-.3.8-.3 1.3-.3 0-.4-.3-.5-.6a3.6 3.6 0 0 1 0-2.2c0-.2.3-.7.2-.9l-.4-.4a3 3 0 0 1-.2-.5L20 8l-.4-.6-.4-.6c0-.1-.1-.3 0-.4v-.1h.6l.8.5.4.3h1l1.2.6c1 .7 2 1.7 2.6 2.8l.2.7.6 1.2.6 1.1c.1.2.6.3.8.4l.6.2.8.6c.2 0 .6.3.6.4zm-11.7 7.4c0 .6-.2 1-.6 1.4a2.5 2.5 0 0 1-1.8.6c-.7 0-1.4-.3-2-.7l.4-.6c.4.3.9.4 1.4.4h.1c.4 0 .7 0 1-.2.2-.2.3-.5.3-.8 0-.4-.3-.8-.8-1l-1.5-.9c-.4-.3-.8-.8-.8-1.4v-.1c0-.5.3-1 .6-1.3a2.2 2.2 0 0 1 1.6-.5c.6 0 1.2.2 1.7.5l-.3.6c-.4-.2-.8-.3-1.3-.3-.3 0-.6 0-.8.2-.2.2-.3.4-.3.7 0 .4.3.8.8 1l1.5.9c.5.3.8.8.8 1.4zm2 .5a4.2 4.2 0 0 1-.3-2.2q0-2.6 1.5-2.6h.1c.5 0 1 .2 1.2.6a4.2 4.2 0 0 1 .4 2.2q0 2.6-1.6 2.6h-.1c-.5 0-.9-.2-1.1-.6zm4.2 1.5-1.3-.6.3-.3a4.2 4.2 0 0 0 .8-2.8q0-3.4-2.6-3.4h-.2c-.7 0-1.4.3-2 .8a4.2 4.2 0 0 0-.7 2.8v.4c0 .8.2 1.7.7 2.3a2.5 2.5 0 0 0 2 .8c.3 0 .6 0 1-.2h-.1l1.6 1 .5-.8zm4.1-.1h-3.3v-7h1.2v6.1h2.1zm-15.4-5.1c-.3 2-1 4-1.9 5.6-.3.7-1 1.2-1.9 1.3a2 2 0 0 1-.7-.2v-.6h.5c.3 0 .6 0 .8-.3.2-.1.3-.4.3-.7a5 5 0 0 0-.3-1.2l-1.2-4h1.1l1 3 .2 1.4c.5-1.2.8-2.7 1-4.2v-.1zm-5 5H7.1q0-2.7-.4-5.4L5 24.4h-.8l-1.8-5.5q-.2 2.7-.2 5.5H1q.1-3.7.5-7H3l1.6 5.1 1.7-5h1.4q.4 3.7.5 6.9zM21.5 8h-.3l.2.4.2.4a.5.5 0 0 0 .2-.5v-.1l-.3-.2z"/></svg>