<svg fill="#2995c7" xmlns="http://www.w3.org/2000/svg" width="800" height="800" viewBox="0 0 512 512" xml:space="preserve"><path d="M401 224c4 4 5 11 3 21-2 11-6 18-12 23-6 4-15 6-26 6h-18l11-56h20c11 0 18 2 22 6zm-251-6h-20l-11 56h18c11 0 20-2 26-6 6-5 10-12 12-23 2-10 1-17-3-21s-11-6-22-6zm362 38c0 74-115 134-256 134S1 330 1 256s114-134 255-134 256 60 256 134zm-313 9c3-5 5-11 6-18 3-16 1-28-7-37s-20-13-37-13h-57L78 331h30l7-36h25c11 0 20-1 27-3s14-6 20-12c5-4 8-9 12-15zm103 30 12-62c2-13 1-22-6-28-6-6-17-8-33-8h-26l7-36h-29l-27 134h30l14-77h24c7 0 12 2 14 4 3 2 3 7 2 14l-12 59h30zm125-85c-8-9-20-13-37-13h-57l-26 134h30l7-36h25c11 0 20-1 27-3s14-6 20-12a60 60 0 0 0 18-33c3-16 1-28-7-37z"/></svg>