<svg fill="#2995c7" width="800" height="800" viewBox="0 0 32 32" xmlns="http://www.w3.org/2000/svg"><path d="M16 0a16 16 0 1 1 0 32 16 16 0 0 1 0-32zm-3.2 21.3a4 4 0 0 1 0 2.4l-.1.3-.1.2-.7 1c-1 1-2.3 1.5-2.8 1.1-.6-.3-.3-1.7.7-2.9 1.2-1.2 2.9-2 2.9-2zM26 6.8c-.7-2.8-5.4-3.7-9.9-2.1-2.6.9-5.5 2.4-7.6 4.3-2.4 2.3-2.8 4.3-2.6 5.1.5 3 4.6 5 6.2 6.3-.5.3-4 2.1-4.9 4-.9 2 .2 3.3.8 3.5 2.1.6 4.3-.5 5.5-2.2 1-1.7 1-3.8.5-4.9.7-.2 1.4-.3 2.4-.1 2.8.3 3.4 2 3.3 2.8s-.7 1.1-1 1.2l-.2.3h.3c.2 0 1.5-.5 1.5-1.9.1-1.7-1.5-3.6-4.5-3.6-1.2 0-2 .1-2.5.3l-.1-.1c-1.8-2-5.1-3.3-5-5.9 0-1 .4-3.4 6.4-6.4 5-2.5 8.9-1.8 9.6-.3 1 2.2-2.1 6.1-7.3 6.7-2 .2-3-.5-3.2-.8l-.4-.3c-.2.1-.1.4 0 .5.1.4.7 1.1 1.8 1.5 1 .3 3.3.5 6-.6 3.1-1.2 5.5-4.5 4.8-7.3z"/></svg>