<svg width="800" height="800" viewBox="-8.8 0 70 70" xmlns="http://www.w3.org/2000/svg"><path d="M22 70c-6.5-.5-13-2.2-17-4.4-2.2-1.2-4-2.8-4.6-4.2l-.4-.8V9.2l.3-.6c1.4-3 6-5.5 12.3-7A64.2 64.2 0 0 1 32.4.2c7 .8 12.7 2.6 16.3 5 1.4 1 2.9 2.4 3.3 3.5l.4.8V61l-.4.7-1.2 1.6c-3 3.2-9.4 5.5-17.8 6.5-1.7.2-9.2.4-11 .3zm12.1-22a37.6 37.6 0 0 0-4.4-4l.5-.4a7 7 0 0 0 3.3-6.4 7 7 0 0 0-2-5.1 6.5 6.5 0 0 0-5-2c-3.4 0-6 2-6.8 5.3-.3 1-.3 3.3 0 4.3a6.8 6.8 0 0 0 5.3 4.8c.9.2 1 .2 1.6.9l1.6 1.6 1 1H34zm-8.7-7.2c-.6-.3-.8-.5-1.2-1.3-.2-.5-.3-.8-.3-2.1s0-1.6.3-2.2c.5-1 1.1-1.4 2.1-1.4 1.4-.1 2.2.5 2.6 2.2.5 2 0 4-1.3 4.7-.6.4-1.6.4-2.2.1zm-11.2 3.7c2.6-.5 4.2-2 4.2-4.3 0-2-1-3.1-3.7-4.3-1.6-.7-2.1-1.1-2.1-1.6s.5-1 1.1-1a8 8 0 0 1 3.2.5l.8.3v-3.5l-.9-.2-3-.2c-1.7 0-2 0-2.8.4-2 .8-2.9 2-2.9 4.1 0 1.9 1 3 3.5 4.1 1.5.7 2 1.1 2 1.7 0 1.2-2 1.3-4 .3l-1.2-.6v1.9c0 1.8 0 1.8.3 2 1.2.4 4 .7 5.5.4zm30.4-1.7v-1.6h-4.8V30.3H35.5v14h9.1v-1.5zM29.8 15c4.2-.2 7.4-.8 10.2-1.7 2.7-1 4.4-2 4.8-3.3.1-.5 0-.7-.1-1.2-.9-2.3-5.9-4.1-13.4-4.8-3.3-.3-9.2-.2-12.3.2-4.7.6-8.5 1.8-10.2 3.2-3.4 2.7.2 5.7 8.7 7 3.6.7 8.4 1 12.3.6z" fill="#2995c7"/></svg>