<svg fill="#ffffff" width="800" height="800" viewBox="0 0 24 24" xmlns="http://www.w3.org/2000/svg"><path d="M12 0a12 12 0 0 0 0 24 12 12 0 0 0 0-24zm0 23a11 11 0 0 1 0-22 11 11 0 0 1 0 22z"/><path d="M15.8 7.1c-1 .3-2.1.5-3.3.5v4h3.9c0-1.6-.2-3.1-.6-4.6zM12.5 2v4.7c1.1 0 2.2-.2 3.2-.4h-.1c-.8-2.4-2-4-3.1-4.3zM8.4 6.3c1 .2 2 .4 3 .4h.1V2c-1.2.3-2.4 1.9-3.1 4.3zM19.2 5a10 10 0 0 0-4.8-2.8c.9 1 1.6 2.4 2 3.8 1-.3 2-.6 2.9-1.1zM17.3 11.5H22a10 10 0 0 0-2.3-6v.1c-.9.5-2 1-3 1.3h-.1c.3 1.4.5 3 .6 4.6zM7.6 11.5h4v-4c-1.3 0-2.5-.1-3.6-.4h.2a19 19 0 0 0-.6 4.4zM16.4 12.5h-4v3.9c1.3 0 2.4.2 3.5.5.3-1.4.5-2.9.5-4.4zM8.2 16.9c1-.3 2.1-.5 3.3-.5v-4h-4c.1 1.6.3 3.2.7 4.6v-.1zM11.5 22v-4.7c-1.1 0-2.2.2-3.2.4.9 2.4 2 4 3.2 4.3zM14.3 21.8c2-.5 3.6-1.4 4.9-2.7-.8-.5-1.7-.9-2.7-1.1a9.9 9.9 0 0 1-2.2 3.8zM9.6 2.2c-1.9.5-3.5 1.4-4.8 2.7.8.5 1.7.8 2.6 1.1h.1a9.9 9.9 0 0 1 2.1-3.8zM16.7 17c1.2.4 2.2.9 3.2 1.4h-.1a10 10 0 0 0 2.3-5.9h-4.8a21 21 0 0 1-.7 4.7zM12.5 17.3V22c1.1-.3 2.3-2 3-4.3-.8-.2-1.9-.4-3-.4zM7.3 7 4.1 5.5h.1A10 10 0 0 0 2 11.5h4.8c0-1.6.2-3.2.6-4.7v.1zM6.7 12.5H1.9a10 10 0 0 0 2.3 6v-.1c.9-.5 2-1 3-1.3h.1c-.4-1.4-.6-3-.6-4.6zM4.8 19a10 10 0 0 0 4.7 2.8h.1c-1-1-1.6-2.4-2-3.8-1.1.3-2 .6-2.9 1.1z"/></svg>